<?xml version="1.0" standalone="no"?>
<!DOCTYPE svg PUBLIC "-//W3C//DTD SVG 20010904//EN"
 "http://www.w3.org/TR/2001/REC-SVG-20010904/DTD/svg10.dtd">
<svg version="1.0" xmlns="http://www.w3.org/2000/svg"
 width="213.000000pt" height="213.000000pt" viewBox="0 0 213.000000 213.000000"
 preserveAspectRatio="xMidYMid meet">
<metadata>
Created by potrace 1.14, written by Peter Selinger 2001-2017
</metadata>
<g transform="translate(0.000000,213.000000) scale(0.100000,-0.100000)"
fill="#000000" stroke="none">
<path d="M1007 1940 c-20 -11 -37 -17 -37 -13 0 5 -4 3 -8 -2 -4 -6 -24 -19
-44 -30 -20 -10 -35 -23 -32 -27 3 -4 -1 -8 -8 -8 -13 0 -156 -90 -192 -120
-74 -62 -86 -78 -91 -121 -3 -24 -8 -152 -10 -285 l-3 -241 24 -27 c14 -14 21
-26 17 -26 -4 0 -1 -5 7 -10 9 -6 11 -10 3 -10 -7 0 -10 -7 -7 -15 4 -8 1 -15
-6 -15 -6 0 -8 -4 -5 -10 3 -5 2 -10 -4 -10 -6 0 -8 -7 -5 -15 4 -8 1 -15 -5
-15 -6 0 -11 -9 -11 -19 0 -11 -4 -22 -10 -26 -6 -3 -6 -15 0 -30 6 -15 6 -27
0 -30 -6 -4 -7 -13 -1 -24 5 -9 6 -23 1 -31 -4 -7 -6 -19 -3 -26 9 -24 9 -149
0 -161 -6 -9 -5 -13 2 -13 7 0 11 -6 10 -13 -7 -59 55 -142 150 -202 49 -30
54 -34 95 -70 16 -14 32 -25 37 -25 4 0 14 -6 21 -13 23 -21 113 -58 151 -62
20 -2 41 -6 47 -10 5 -3 10 -2 10 4 0 9 37 7 48 -3 2 -3 11 2 19 10 8 8 19 12
24 9 5 -4 9 -2 9 2 0 5 15 17 33 28 17 10 37 23 42 27 16 14 116 78 122 78 2
0 11 6 18 13 34 30 43 35 49 30 3 -3 8 2 12 11 3 9 10 16 16 16 12 0 58 46 58
59 0 5 5 11 12 13 9 3 12 38 11 124 -2 187 -8 318 -16 331 -4 6 -3 14 2 18 7
4 7 15 1 31 -6 14 -10 38 -10 53 0 26 -50 88 -62 76 -3 -3 -22 2 -42 10 -26
11 -36 21 -34 33 4 20 45 29 61 13 22 -22 55 -12 66 20 6 17 8 35 5 40 -3 5
-1 9 5 9 12 0 12 -1 15 200 1 152 -6 210 -26 210 -4 0 -5 6 -3 13 3 7 -45 45
-118 92 -67 44 -124 83 -125 88 -2 4 -8 5 -13 1 -5 -3 -9 -1 -9 4 0 5 -18 17
-40 27 -22 10 -40 22 -40 27 0 5 -4 6 -10 3 -5 -3 -10 -2 -10 3 0 4 -16 14
-35 22 -19 8 -35 16 -35 20 0 14 -59 8 -93 -10z"/>
</g>
</svg>
