<?xml version="1.0" encoding="UTF-8" standalone="no"?>
<svg
   viewBox="0.5 0.5 5 11"
   version="1.1"
   id="svg1"
   width="25"
   height="121"
   xmlns:xlink="http://www.w3.org/1999/xlink"
   xmlns="http://www.w3.org/2000/svg"
   xmlns:svg="http://www.w3.org/2000/svg">
  <defs
     id="defs1" />
  <path
     id="a"
     fill="none"
     stroke="#000000"
     stroke-width="0.4"
     d="M 3,9 V 7 L 1,5 V 3 L 3,1 5,3 V 5 L 4,6" />
  <use
     xlink:href="#a"
     transform="rotate(180,3,6)"
     id="use1" />
  <path
     style="fill:#ffffff;fill-opacity:1;stroke-width:0.0156919"
     d="M 2.104442,9.8013041 1.21398,8.9107393 V 8.0005468 7.0903541 L 1.610314,6.6942488 2.006648,6.2981433 2.4027534,6.6944772 2.7988588,7.0908113 V 8.051825 9.0128388 H 3.0028531 3.2068474 V 7.9575143 6.9021897 L 2.2104137,5.9058488 1.21398,4.9095079 V 3.9992814 3.0890551 L 2.1084165,2.1947218 3.0028531,1.3003885 3.8972896,2.1947218 4.7917261,3.0890551 V 3.9993504 4.9096459 L 4.3953922,5.3057512 3.9990581,5.7018567 3.6029528,5.3055228 3.2068474,4.9091887 V 3.948175 2.9871612 H 3.0028531 2.7988588 V 4.0424857 5.0978103 L 3.7952924,6.0941512 4.7917261,7.0904921 V 8.0007186 8.9109449 L 3.9011614,9.8014068 C 3.4113509,10.291161 3.0070659,10.691869 3.0027503,10.691869 c -0.00432,0 -0.4085543,-0.400754 -0.8983083,-0.8905649 z"
     id="path1" />
</svg>
